# xmcd
#
# Track frame offsets:
#	150
#	19314
#	45041
#	60960
#	82522
#	102416
#	125166
#	144187
#	163898
#	187708
#	207006
#	226392
#	246094
#	267441
#	288130
#	307749
#	324457
#
# Disc length: 4558 seconds
#
# Revision: 0
# Processed by: cddbd v1.5.2PL0 Copyright (c) Steve Scherf et al.
# Submitted via: dBpowerAMP V4.0
#
DISCID=d111cc11
DTITLE=Mariah Carey - Through The Rain
DYEAR=1900
DGENRE=Blues
TTITLE0=Thank God I Found You
TTITLE1=Bliss
TTITLE2=Underneath The Stars
TTITLE3=I Don't Wanna Cry
TTITLE4=Can't Let Go
TTITLE5=You're So Cold
TTITLE6=Anytime You Need A Friend
TTITLE7=And You Don't Remember
TTITLE8=Everything Fades Away
TTITLE9=Endless Love (inc Vandross)
TTITLE10=Close My Eyes
TTITLE11=Fourth Of July
TTITLE12=I've Been Thinking About You
TTITLE13=If It's Over
TTITLE14=Never Too Far
TTITLE15=Now That I Know
TTITLE16=All I've Ever Wanted
EXTD=
EXTT0=
EXTT1=
EXTT2=
EXTT3=
EXTT4=
EXTT5=
EXTT6=
EXTT7=
EXTT8=
EXTT9=
EXTT10=
EXTT11=
EXTT12=
EXTT13=
EXTT14=
EXTT15=
EXTT16=
PLAYORDER=
